<?xml version="1.0" encoding="utf-8"?>
<!-- Generator: Adobe Illustrator 16.0.0, SVG Export Plug-In . SVG Version: 6.00 Build 0)  -->
<svg version="1.2" baseProfile="tiny" id="Layer_1" xmlns="http://www.w3.org/2000/svg" xmlns:xlink="http://www.w3.org/1999/xlink"
	 x="0px" y="0px" width="357px" height="357.001px" viewBox="0 0 357 357.001" xml:space="preserve">
<g>
	<path fill="#FFFFFF" d="M119.649,89.861h3.763V70.333h-3.763v-2.969h12.127c5.478,0,9.324,2.342,9.324,6.565
		c0,2.467-1.296,4.809-4.976,5.854c4.139,0.878,5.854,3.345,5.854,6.272c0,4.266-3.638,6.774-9.618,6.774h-12.712V89.861z
		 M131.316,78.487c3.847,0,6.146-1.463,6.146-4.182c0-2.634-2.258-4.014-5.687-4.014h-4.768v8.196H131.316z M132.277,89.903
		c3.68,0,6.064-1.463,6.064-4.223c0-2.802-2.342-4.349-6.231-4.349h-5.102v8.572H132.277z"/>
	<path fill="#FFFFFF" d="M144.45,89.861h3.764V70.333h-3.764v-2.969h11.917c6.105,0,10.161,3.011,10.161,7.778
		c0,3.429-2.049,5.979-5.603,6.983l4.306,7.736h3.514v2.969h-6.022l-5.395-9.743h-5.436v6.774h3.721v2.969H144.45V89.861z
		 M156.451,80.201c4.516,0,6.356-2.09,6.356-4.934c0-2.843-1.882-4.934-6.356-4.934h-4.557v9.868H156.451z"/>
	<path fill="#FFFFFF" d="M171.237,89.861H175V70.333h-3.763v-2.969h20.614v7.15h-3.387v-4.182h-9.786v8.196h10.538v2.969h-10.538
		v8.363h9.869v-4.307h3.429v7.276h-20.74V89.861z"/>
	<path fill="#FFFFFF" d="M197.3,70.333h-3.179v-2.969h10.705v2.969h-3.93l5.646,18.022l5.646-16.308l-0.586-1.715h-3.428v-2.969
		h10.871v2.969h-3.973l5.98,17.939l5.603-17.939h-3.93v-2.969h10.746v2.969h-3.178l-7.317,22.497h-3.513L213.9,76.94l-5.77,15.89
		h-3.514L197.3,70.333z"/>
</g>
<g>
	<g>
		<path fill="#FFFFFF" stroke="#FFFFFF" stroke-miterlimit="10" d="M196.518,169.081c13.838-3.386,18.697-12.073,18.697-21.2
			c0-15.016-13.691-22.523-31.946-22.523h-38.865v4.563h15.165v80.525h-15.165v4.566h41.517c18.694,0,33.27-7.655,33.27-23.407
			C219.19,181.3,212.859,171.583,196.518,169.081z M164.72,171.583v-4.416V129.92h18.549c15.9,0,26.794,6.036,26.794,18.403
			c0,12.365-11.041,18.844-28.854,18.844l-1.505,0.021l-0.054-7.243l-4.346-0.053c0.053,11.26,0.053,6.941,0.107,18.726h4.4v-7.138
			l5.225,0.102c16.932,0,29.001,6.33,29.001,19.727c0,12.808-11.334,19.136-28.264,19.136H164.72V171.583L164.72,171.583z"/>
	</g>
	<rect x="140.278" y="119.755" fill="#FFFFFF" stroke="#FFFFFF" stroke-miterlimit="10" width="4.373" height="15.667"/>
	<rect x="140.491" y="204.964" fill="#FFFFFF" stroke="#FFFFFF" stroke-miterlimit="10" width="4.16" height="15.668"/>
	<g>
		<path fill="#FFFFFF" stroke="#FFFFFF" stroke-width="3" stroke-miterlimit="10" d="M189.028,145.952
			c-4.57-1.88-15.063-4.357-20.985-4.357c-16.934,0-29.818,9.703-29.818,28.216c0,19.601,14.545,28.115,29.401,28.115
			c8,0,15.688-2.475,21.402-5.544v3.367c-5.193,2.87-12.882,5.346-21.505,5.346c-18.285,0-33.143-11.386-33.143-31.383
			c0-17.621,11.534-31.283,33.455-31.283c7.896,0,15.581,1.67,21.193,4.244V145.952"/>
	</g>
	
		<rect x="188.677" y="188.047" fill="#FFFFFF" stroke="#FFFFFF" stroke-width="2" stroke-miterlimit="10" width="3.378" height="11.521"/>
	
		<rect x="188.763" y="138.806" fill="#FFFFFF" stroke="#FFFFFF" stroke-width="3" stroke-miterlimit="10" width="3.209" height="11.52"/>
</g>
<circle fill="none" stroke="#FFFFFF" stroke-width="5" stroke-miterlimit="10" cx="178.5" cy="178.936" r="167.646"/>
<g>
	<path fill="#FFFFFF" d="M77.284,223.366c6.238-4.873,13.422-3.96,18.395,2.404c2.261,2.895,3.535,6.249,3.965,8.191l-5.146,4.018
		l-2.134-2.734l3.6-2.812c-0.468-1.395-1.434-3.229-2.564-4.675c-3.466-4.437-8.686-5.486-13.702-1.566
		c-5.241,4.094-5.042,9.582-1.727,13.826c2.01,2.572,4.882,4.263,7.236,5.219l-2.7,2.11c-1.902-0.843-4.769-2.59-7.155-5.646
		C70.529,235.529,70.919,228.34,77.284,223.366z"/>
	<path fill="#FFFFFF" d="M93.456,243.555c4.708-5.847,12.146-6.825,18.056-2.066c5.911,4.759,6.544,12.234,1.837,18.081
		c-4.707,5.849-12.121,6.793-18.032,2.034C89.408,256.845,88.748,249.4,93.456,243.555z M110.489,257.268
		c3.787-4.703,3.294-10.076-0.869-13.426c-4.131-3.328-9.511-2.63-13.272,2.041c-3.787,4.703-3.299,10.019,0.863,13.37
		C101.342,262.577,106.728,261.938,110.489,257.268z"/>
	<path fill="#FFFFFF" d="M111.704,269.356l3.281,1.647l8.546-17.027l-3.282-1.647l1.3-2.59l10.21,5.126l-1.3,2.588l-3.719-1.867
		l-8.546,17.029l8.605,4.318l1.994-3.975l2.99,1.501l-3.293,6.563l-18.086-9.078L111.704,269.356z"/>
	<path fill="#FFFFFF" d="M134.626,280.194l3.543,0.967l5.014-18.381l-3.542-0.966l0.763-2.795l11.02,3.006l-0.763,2.795
		l-4.014-1.096l-5.015,18.381l9.288,2.535l1.171-4.291l3.227,0.881l-1.932,7.083l-19.521-5.324L134.626,280.194z"/>
	<path fill="#FFFFFF" d="M159.284,286.34l3.664,0.232l1.206-19.013l-3.663-0.231l0.183-2.89l20.07,1.272l-0.441,6.962l-3.297-0.209
		l0.258-4.071l-9.526-0.605l-0.507,7.979l10.259,0.651l-0.183,2.891l-10.26-0.652l-0.517,8.145l9.607,0.608l0.267-4.192l3.338,0.211
		l-0.45,7.084L159.1,289.23L159.284,286.34z"/>
	<path fill="#FFFFFF" d="M184.12,278.175c-1.138-7.833,3.215-13.617,11.208-14.778c3.633-0.528,7.176,0.027,9.075,0.617l0.939,6.46
		l-3.432,0.498l-0.657-4.521c-1.443-0.285-3.514-0.354-5.33-0.09c-5.572,0.809-9.069,4.82-8.154,11.119
		c0.957,6.58,5.82,9.129,11.148,8.354c3.23-0.471,6.122-2.125,8.119-3.695l0.494,3.393c-1.676,1.232-4.614,2.854-8.449,3.412
		C191.331,290.069,185.282,286.167,184.12,278.175z"/>
	<path fill="#FFFFFF" d="M217.714,281.058l3.664-1.383l-6.722-17.828l-5.65,2.132l1.454,3.854l-3.053,1.154l-2.477-6.568
		l20.767-7.83l2.476,6.565l-3.093,1.167l-1.453-3.856l-5.612,2.116l6.723,17.827l3.666-1.382l1.021,2.711l-10.689,4.03
		L217.714,281.058z"/>
	<path fill="#FFFFFF" d="M237.531,272.657l3.174-1.847l-9.586-16.47l-3.174,1.849l-1.458-2.504l9.416-5.48l1.457,2.504l-3.138,1.827
		l9.585,16.468l3.14-1.827l1.457,2.504l-9.417,5.48L237.531,272.657z"/>
	<path fill="#FFFFFF" d="M241.021,248.656l-2.444,2.099l-1.888-2.196l8.14-6.992l1.888,2.197l-2.816,2.42l16.581,9.102l-6.49-17.766
		l-2.817,2.418l-1.887-2.197l8.048-6.912l1.888,2.199l-2.445,2.1l7.799,22.234l-2.754,2.365L241.021,248.656z"/>
	<path fill="#FFFFFF" d="M274.856,243.48l2.184-2.95L261.727,229.2l-2.183,2.952l-2.328-1.723l11.961-16.165l5.607,4.147
		l-1.966,2.657l-3.279-2.426l-5.677,7.673l6.427,4.754l6.114-8.263l2.327,1.721l-6.113,8.263l6.558,4.853l5.727-7.737l-3.378-2.5
		l1.989-2.689l5.705,4.223l-12.033,16.262L274.856,243.48z"/>
</g>
<path fill="none" stroke="#FFFFFF" stroke-miterlimit="10" d="M324.08,178.933c0,80.4-65.18,145.579-145.578,145.579
	c-80.402,0-145.581-65.179-145.581-145.579c0-80.399,65.179-145.578,145.581-145.578C258.9,33.355,324.08,98.534,324.08,178.933z"/>
<path fill="none" stroke="#FFFFFF" stroke-width="7" stroke-miterlimit="10" d="M353.5,178.499
	c0,96.651-78.351,175.002-174.999,175.002C81.851,353.501,3.5,275.15,3.5,178.499C3.5,81.852,81.851,3.5,178.501,3.5
	C275.149,3.5,353.5,81.852,353.5,178.499z"/>
<circle fill="none" stroke="#FFFFFF" stroke-miterlimit="10" cx="178.501" cy="178.933" r="149.53"/>
<g>
	<path fill="#FFFFFF" d="M86.99,56.567l1.113-0.792L83.9,49.865l-1.113,0.791l-0.238-0.335l2.853-2.028
		c1.34-0.953,2.737-1.116,3.521-0.014c0.476,0.67,0.573,1.561-0.266,2.532c1.33-0.669,2.301-0.287,2.839,0.47
		c0.823,1.156,0.152,2.479-1.22,3.455l-3.048,2.167L86.99,56.567z M87.432,51.47c1.307-0.93,1.781-1.981,1.135-2.89
		c-0.646-0.908-1.759-0.782-2.927,0.047l-1.361,0.968l1.944,2.734L87.432,51.47z M90.026,54.409c1.243-0.884,1.745-1.94,1.077-2.88
		c-0.699-0.983-1.916-0.818-3.159,0.065l-1.491,1.06l2.028,2.853L90.026,54.409z"/>
	<path fill="#FFFFFF" d="M97.721,49.23l1.177-0.692l-3.664-6.228l-1.177,0.692l-0.215-0.366l3.074-1.809
		c0.925-0.544,2.806-1.296,3.834,0.452c0.679,1.154,0.288,2.215-0.602,3.03l2.932,1.767l1.153-0.679l0.216,0.365l-1.406,0.827
		l-3.267-1.97c-0.146,0.117-0.295,0.204-0.455,0.298l-1.485,0.874l1.472,2.502l1.177-0.692l0.216,0.366l-2.766,1.626L97.721,49.23z
		 M99.107,44.554c1.462-0.86,1.885-1.893,1.24-2.991c-0.646-1.097-1.754-1.229-3.217-0.369l-1.486,0.874l1.977,3.36L99.107,44.554z"
		/>
	<path fill="#FFFFFF" d="M109.363,42.7l1.232-0.589l-3.116-6.518l-1.231,0.589l-0.183-0.383l5.704-2.727l0.897,1.878l-0.407,0.194
		l-0.714-1.495l-3.636,1.738l1.453,3.037l3.527-1.686l0.183,0.383l-3.527,1.686l1.479,3.097l3.647-1.743l-0.708-1.483l0.407-0.194
		l0.891,1.866l-5.716,2.732L109.363,42.7z"/>
	<path fill="#FFFFFF" d="M119.01,30.39l-1.123,0.405l-0.145-0.399l2.932-1.058l0.144,0.399l-1.36,0.491l4.44,5.744l-0.051-6.397
		l-0.584-0.72l-1.123,0.405l-0.144-0.399l2.92-1.053l0.144,0.399l-1.36,0.49l4.627,5.677l-0.248-7.256l-1.36,0.49l-0.144-0.399
		l2.932-1.058l0.144,0.399l-1.123,0.405l0.25,8.044l-0.375,0.135l-4.107-5.019l0.028,6.49l-0.375,0.134L119.01,30.39z"/>
	<path fill="#FFFFFF" d="M145.296,30.132l-0.327-1.625l0.442-0.09l0.261,1.3c0.623,0.064,1.479,0.013,2.154-0.123
		c1.547-0.312,2.16-1.099,1.966-2.061c-0.484-2.405-4.961-0.583-5.512-3.313c-0.215-1.066,0.319-2.107,2.192-2.485
		c0.754-0.152,1.603-0.174,2.292-0.11l0.325,1.612l-0.455,0.092l-0.259-1.288c-0.494-0.036-1.166-0.009-1.777,0.114
		c-1.665,0.336-2.02,1.192-1.864,1.959c0.46,2.289,4.951,0.531,5.515,3.327c0.259,1.287-0.595,2.217-2.338,2.568
		C147.092,30.175,146.059,30.221,145.296,30.132z"/>
	<path fill="#FFFFFF" d="M156.698,27.88l1.356-0.163l-0.86-7.175l-1.356,0.163l-0.051-0.421l3.424-0.41
		c1.119-0.134,3.099,0.002,3.345,2.057c0.246,2.054-1.645,2.654-2.764,2.789l-1.593,0.19l0.33,2.752l1.593-0.191l0.05,0.421
		l-3.423,0.41L156.698,27.88z M158.147,24.488l1.594-0.191c1.685-0.202,2.478-1.045,2.327-2.309
		c-0.151-1.264-1.122-1.896-2.807-1.694l-1.593,0.191L158.147,24.488z"/>
	<path fill="#FFFFFF" d="M169.256,26.624l1.365-0.051l-0.269-7.222l-1.365,0.051l-0.016-0.424l6.321-0.235l0.077,2.08l-0.451,0.017
		l-0.062-1.656l-4.028,0.15l0.125,3.366l3.909-0.145l0.016,0.424l-3.909,0.146l0.128,3.432l4.042-0.15l-0.062-1.643l0.451-0.017
		l0.077,2.067l-6.334,0.235L169.256,26.624z"/>
	<path fill="#FFFFFF" d="M182.278,22.782c0.111-2.357,1.668-4.117,4.463-3.985c1.007,0.048,1.936,0.331,2.636,0.708l-0.083,1.749
		l-0.464-0.022l0.071-1.497c-0.571-0.278-1.398-0.477-2.153-0.513c-2.16-0.102-3.864,1.119-3.98,3.596
		c-0.125,2.623,1.677,3.849,3.571,3.939c1.02,0.048,2.016-0.237,2.764-0.613l-0.021,0.45c-0.68,0.353-1.677,0.638-2.776,0.586
		C183.975,27.071,182.152,25.458,182.278,22.782z"/>
	<path fill="#FFFFFF" d="M195.211,27.321l1.356,0.166l0.876-7.172l-1.354-0.166l0.051-0.421l3.185,0.389l-0.051,0.421l-1.355-0.166
		l-0.878,7.172l1.355,0.166l-0.051,0.421l-3.185-0.389L195.211,27.321z"/>
	<path fill="#FFFFFF" d="M203.905,28.485l1.183,0.239l4.291-6.504l-1.234-0.25l0.083-0.416l1.962,0.397l1.499,8.108l1.182,0.239
		l-0.084,0.416l-3.08-0.623l0.084-0.416l1.416,0.287l-0.476-2.531l-3.754-0.76l-1.41,2.15l1.417,0.287l-0.084,0.416l-3.08-0.623
		L203.905,28.485z M210.65,26.968l-0.838-4.619l-2.58,3.929L210.65,26.968z"/>
	<path fill="#FFFFFF" d="M218.209,31.684l1.311,0.386l2.044-6.934l-1.31-0.386l0.119-0.407l3.194,0.941l-0.12,0.407l-1.426-0.42
		l-2.043,6.935l3.945,1.162l0.483-1.642l0.433,0.128l-0.604,2.048l-6.146-1.811L218.209,31.684z"/>
	<path fill="#FFFFFF" d="M229.979,35.434l1.278,0.479l2.53-6.768l-1.279-0.479l0.149-0.397l3.004,1.124l-0.148,0.397l-1.279-0.478
		l-2.529,6.767l1.279,0.479l-0.148,0.397l-3.005-1.124L229.979,35.434z"/>
	<path fill="#FFFFFF" d="M238.755,39.109l0.687-1.508l0.411,0.187l-0.55,1.206c0.466,0.416,1.188,0.876,1.815,1.162
		c1.436,0.654,2.392,0.375,2.798-0.517c1.016-2.231-3.675-3.377-2.521-5.91c0.45-0.989,1.492-1.519,3.229-0.728
		c0.7,0.319,1.4,0.797,1.92,1.252l-0.681,1.496l-0.422-0.192l0.543-1.194c-0.38-0.318-0.938-0.689-1.504-0.948
		c-1.544-0.703-2.334-0.217-2.657,0.494c-0.967,2.123,3.697,3.33,2.516,5.922c-0.544,1.194-1.779,1.446-3.396,0.71
		C240.183,40.196,239.319,39.628,238.755,39.109z"/>
	<path fill="#FFFFFF" d="M250.771,44.774l1.251,0.696l3.514-6.314l-2.433-1.354l-0.755,1.356l-0.395-0.219l0.962-1.727l6.07,3.378
		l-0.961,1.726l-0.394-0.219l0.755-1.355l-2.433-1.354l-3.515,6.314l1.252,0.696l-0.207,0.371l-2.919-1.625L250.771,44.774z"/>
	<path fill="#FFFFFF" d="M260.407,50.672l0.92-1.378l0.375,0.25l-0.735,1.103c0.393,0.485,1.032,1.055,1.605,1.437
		c1.312,0.875,2.301,0.754,2.844-0.062c1.361-2.04-3.086-3.922-1.542-6.237c0.603-0.904,1.717-1.261,3.305-0.202
		c0.64,0.427,1.253,1.011,1.694,1.544l-0.912,1.367l-0.387-0.257l0.729-1.091c-0.324-0.375-0.816-0.831-1.335-1.176
		c-1.411-0.941-2.268-0.589-2.701,0.062c-1.294,1.941,3.116,3.878,1.536,6.249c-0.729,1.091-1.99,1.143-3.467,0.158
		C261.643,51.974,260.882,51.275,260.407,50.672z"/>
</g>
<g>
	<path fill="#FFFFFF" d="M329.838,159.334l0.146,1.357l7.212-0.772l-0.146-1.358l0.409-0.044l0.373,3.481
		c0.176,1.635-0.365,2.933-1.711,3.077c-0.816,0.087-1.642-0.264-2.077-1.471c-0.067,1.487-0.878,2.148-1.8,2.247
		c-1.411,0.151-2.236-1.08-2.416-2.755l-0.398-3.718L329.838,159.334z M330.236,163.039c0.161,1.516,0.837,2.47,1.984,2.348
		c1.199-0.129,1.65-1.271,1.488-2.787l-0.195-1.82l-3.48,0.374L330.236,163.039z M334.068,162.214
		c0.171,1.596,0.857,2.522,1.964,2.403c1.107-0.119,1.544-1.152,1.391-2.576l-0.178-1.662l-3.336,0.358L334.068,162.214z"/>
	<path fill="#FFFFFF" d="M330.986,172.269l0.028,1.365l7.224-0.147l-0.028-1.365l0.424-0.009l0.072,3.565
		c0.023,1.074-0.24,3.082-2.269,3.124c-1.34,0.027-2.073-0.833-2.35-2.008l-2.975,1.692l0.027,1.339l-0.424,0.009l-0.034-1.63
		l3.316-1.885c-0.03-0.185-0.034-0.357-0.037-0.543l-0.035-1.723l-2.902,0.059l0.027,1.365l-0.424,0.009l-0.065-3.208
		L330.986,172.269z M334.386,175.766c0.035,1.696,0.729,2.571,2.001,2.544c1.273-0.026,1.931-0.928,1.896-2.624l-0.035-1.723
		l-3.896,0.08L334.386,175.766z"/>
	<path fill="#FFFFFF" d="M330.983,185.618l-0.089,1.362l7.208,0.472l0.09-1.363l0.424,0.028l-0.415,6.309l-2.076-0.136l0.03-0.45
		l1.652,0.108l0.265-4.02l-3.36-0.22l-0.255,3.901l-0.424-0.027l0.256-3.901l-3.426-0.226l-0.265,4.034l1.641,0.108l-0.029,0.449
		l-2.063-0.135l0.413-6.323L330.983,185.618z"/>
	<path fill="#FFFFFF" d="M337,200.055l0.196-1.178l0.419,0.069l-0.513,3.075l-0.418-0.07l0.237-1.426l-7.183,1.062l5.604,3.085
		l0.913-0.157l0.196-1.178l0.419,0.07l-0.511,3.061l-0.419-0.07l0.238-1.425l-7.215,1.258l6.449,3.333l0.238-1.426l0.419,0.069
		l-0.514,3.075l-0.418-0.07l0.196-1.177l-7.14-3.717l0.066-0.393l6.386-1.128l-5.673-3.15l0.065-0.393L337,200.055z"/>
	<path fill="#FFFFFF" d="M324.365,223.106l1.577,0.509l-0.139,0.429l-1.262-0.407c-0.36,0.511-0.734,1.281-0.946,1.939
		c-0.485,1.502-0.1,2.42,0.835,2.722c2.335,0.754,2.937-4.042,5.587-3.186c1.034,0.333,1.683,1.31,1.095,3.127
		c-0.236,0.731-0.632,1.482-1.025,2.053l-1.565-0.506l0.143-0.442l1.251,0.404c0.272-0.414,0.576-1.012,0.768-1.606
		c0.522-1.615-0.051-2.344-0.796-2.584c-2.221-0.717-2.885,4.059-5.6,3.182c-1.249-0.404-1.642-1.604-1.095-3.295
		C323.448,224.649,323.913,223.727,324.365,223.106z"/>
	<path fill="#FFFFFF" d="M320.75,234.152l-0.522,1.262l6.678,2.76l0.522-1.262l0.392,0.162l-1.316,3.187
		c-0.431,1.041-1.519,2.701-3.43,1.911c-1.912-0.79-1.51-2.734-1.079-3.775l0.611-1.483l-2.561-1.058l-0.612,1.482l-0.394-0.162
		l1.318-3.186L320.75,234.152z M322.999,237.076l-0.613,1.482c-0.647,1.569-0.303,2.673,0.875,3.16
		c1.176,0.485,2.202-0.052,2.851-1.62l0.612-1.483L322.999,237.076z"/>
	<path fill="#FFFFFF" d="M315.701,245.719l-0.623,1.215l6.431,3.3l0.622-1.216l0.379,0.194l-2.889,5.627l-1.852-0.95l0.206-0.4
		l1.475,0.757l1.84-3.587l-2.997-1.538l-1.785,3.48l-0.378-0.193l1.786-3.48l-3.056-1.567l-1.847,3.599l1.463,0.75l-0.205,0.401
		l-1.841-0.944l2.894-5.64L315.701,245.719z"/>
	<path fill="#FFFFFF" d="M312.68,258.955c2.003,1.25,2.774,3.469,1.293,5.841c-0.534,0.855-1.235,1.527-1.908,1.952l-1.484-0.928
		l0.246-0.394l1.271,0.794c0.523-0.361,1.102-0.985,1.502-1.627c1.145-1.832,0.914-3.916-1.188-5.23
		c-2.229-1.392-4.18-0.42-5.185,1.188c-0.541,0.865-0.779,1.874-0.816,2.71l-0.382-0.238c0.024-0.767,0.264-1.774,0.846-2.708
		C308.11,258.335,310.408,257.535,312.68,258.955z"/>
	<path fill="#FFFFFF" d="M302.396,268.014l-0.809,1.102l5.826,4.273l0.808-1.1l0.342,0.25l-1.898,2.587l-0.341-0.25l0.807-1.102
		l-5.825-4.275l-0.808,1.101l-0.342-0.25l1.898-2.587L302.396,268.014z"/>
	<path fill="#FFFFFF" d="M297.126,275.025l-0.787,0.914l3.573,6.925l0.821-0.954l0.321,0.276l-1.305,1.518l-7.805-2.66l-0.787,0.914
		l-0.322-0.276l2.05-2.381l0.322,0.276l-0.943,1.096l2.44,0.823l2.5-2.904l-1.187-2.28l-0.942,1.096l-0.321-0.277l2.05-2.381
		L297.126,275.025z M295.148,281.65l4.438,1.53l-2.163-4.173L295.148,281.65z"/>
	<path fill="#FFFFFF" d="M287.338,285.937l-0.978,0.954l5.048,5.175l0.978-0.954l0.297,0.304l-2.383,2.325l-0.298-0.305l1.063-1.037
		l-5.047-5.175l-2.943,2.871l1.194,1.225l-0.322,0.315l-1.491-1.529l4.586-4.473L287.338,285.937z"/>
	<path fill="#FFFFFF" d="M278.308,294.366l-1.042,0.882l4.665,5.517l1.041-0.882l0.274,0.324l-2.449,2.072l-0.274-0.325l1.043-0.882
		l-4.664-5.516l-1.043,0.881l-0.273-0.324l2.449-2.071L278.308,294.366z"/>
	<path fill="#FFFFFF" d="M270.809,300.222l0.979,1.336l-0.364,0.267l-0.783-1.069c-0.591,0.203-1.345,0.608-1.9,1.015
		c-1.271,0.933-1.499,1.902-0.918,2.693c1.449,1.979,4.743-1.553,6.388,0.692c0.642,0.877,0.594,2.045-0.945,3.173
		c-0.619,0.454-1.38,0.83-2.031,1.061l-0.972-1.325l0.374-0.274l0.775,1.059c0.464-0.175,1.061-0.481,1.563-0.849
		c1.367-1.003,1.33-1.929,0.868-2.559c-1.378-1.882-4.712,1.595-6.396-0.703c-0.774-1.059-0.391-2.26,1.043-3.31
		C269.163,300.935,270.08,300.46,270.809,300.222z"/>
	<path fill="#FFFFFF" d="M259.992,307.929l-1.22,0.751l3.787,6.153l2.372-1.46l-0.813-1.32l0.384-0.236l1.035,1.683l-5.916,3.642
		l-1.036-1.683l0.385-0.235l0.812,1.321l2.371-1.46l-3.788-6.154l-1.22,0.751l-0.222-0.361l2.846-1.752L259.992,307.929z"/>
	<path fill="#FFFFFF" d="M250.119,313.455l0.751,1.478l-0.402,0.204l-0.601-1.182c-0.616,0.105-1.427,0.383-2.04,0.696
		c-1.407,0.716-1.786,1.638-1.341,2.512c1.112,2.187,4.935-0.77,6.197,1.712c0.493,0.969,0.258,2.115-1.443,2.981
		c-0.687,0.348-1.496,0.598-2.178,0.721l-0.745-1.466l0.413-0.211l0.596,1.171c0.485-0.099,1.124-0.305,1.68-0.587
		c1.513-0.771,1.625-1.689,1.27-2.387c-1.058-2.08-4.91,0.816-6.203-1.724c-0.596-1.171-0.021-2.295,1.562-3.101
		C248.379,313.895,249.36,313.573,250.119,313.455z"/>
</g>
<g>
	<path fill="#FFFFFF" d="M103.074,311.594l-1.172-0.7l-3.723,6.225l1.172,0.701l-0.211,0.353l-3.004-1.798
		c-1.411-0.844-2.123-2.057-1.428-3.218c0.422-0.705,1.199-1.152,2.425-0.774c-1.147-0.949-1.187-1.992-0.71-2.789
		c0.729-1.217,2.209-1.136,3.654-0.271l3.209,1.92L103.074,311.594z M98.228,313.237c-1.377-0.823-2.53-0.833-3.101,0.123
		c-0.572,0.956-0.009,1.927,1.22,2.661l1.434,0.857L99.502,314L98.228,313.237z M99.876,309.682
		c-1.309-0.783-2.478-0.818-3.07,0.173c-0.619,1.034,0.021,2.083,1.33,2.864l1.57,0.94l1.796-3.005L99.876,309.682z"/>
	<path fill="#FFFFFF" d="M92.054,304.726l-1.107-0.8l-4.23,5.858l1.107,0.8l-0.248,0.344l-2.892-2.087
		c-0.87-0.629-2.315-2.049-1.128-3.693c0.784-1.085,1.912-1.153,3.017-0.668l0.439-3.393l-1.085-0.785l0.249-0.343l1.322,0.954
		l-0.491,3.782c0.166,0.087,0.306,0.188,0.457,0.297l1.397,1.009l1.7-2.354l-1.108-0.799l0.249-0.345l2.601,1.879L92.054,304.726z
		 M87.214,305.336c-1.375-0.993-2.491-0.965-3.237,0.067c-0.745,1.031-0.421,2.099,0.955,3.093l1.398,1.009l2.281-3.159
		L87.214,305.336z"/>
	<path fill="#FFFFFF" d="M81.395,296.69l-1.035-0.892l-4.715,5.473l1.034,0.892l-0.277,0.321l-4.79-4.127l1.358-1.576l0.341,0.293
		l-1.082,1.256l3.053,2.631l2.198-2.552l-2.962-2.552l0.277-0.321l2.962,2.552l2.241-2.601l-3.063-2.639l-1.073,1.245l-0.341-0.294
		l1.349-1.566l4.8,4.136L81.395,296.69z"/>
	<path fill="#FFFFFF" d="M66.244,292.808l0.822,0.865l-0.308,0.292l-2.146-2.26l0.308-0.293l0.996,1.05l3.475-6.376l-5.836,2.618
		l-0.426,0.824l0.823,0.865l-0.308,0.293l-2.138-2.25l0.308-0.293l0.995,1.048l3.338-6.52l-6.544,3.145l0.996,1.049l-0.307,0.292
		l-2.148-2.26l0.308-0.292l0.823,0.865l7.266-3.463l0.273,0.288l-2.942,5.779l5.93-2.636l0.274,0.289L66.244,292.808z"/>
	<path fill="#FFFFFF" d="M55.44,268.843l-1.356,0.953l-0.259-0.369l1.085-0.763c-0.191-0.595-0.582-1.358-0.979-1.923
		c-0.908-1.29-1.874-1.535-2.676-0.971c-2.008,1.411,1.46,4.777-0.818,6.379c-0.89,0.625-2.059,0.555-3.157-1.008
		c-0.442-0.63-0.804-1.396-1.022-2.054l1.346-0.946l0.267,0.38l-1.075,0.755c0.166,0.467,0.461,1.071,0.819,1.581
		c0.977,1.389,1.904,1.37,2.543,0.919c1.91-1.343-1.504-4.746,0.829-6.387c1.074-0.754,2.27-0.346,3.292,1.108
		C54.759,267.181,55.216,268.109,55.44,268.843z"/>
	<path fill="#FFFFFF" d="M48.795,259.309l-0.694-1.177l-6.225,3.672l0.694,1.177l-0.365,0.215l-1.752-2.969
		c-0.573-0.971-1.243-2.838,0.538-3.889s3.092,0.439,3.665,1.409l0.815,1.383l2.387-1.409l-0.815-1.381l0.365-0.217l1.752,2.97
		L48.795,259.309z M45.106,259.345l-0.815-1.382c-0.863-1.462-1.954-1.85-3.05-1.202c-1.096,0.646-1.284,1.789-0.422,3.251
		l0.815,1.382L45.106,259.345z"/>
	<path fill="#FFFFFF" d="M42.596,248.314l-0.594-1.229l-6.505,3.149l0.595,1.229l-0.382,0.185l-2.756-5.692l1.873-0.907l0.197,0.406
		l-1.492,0.722l1.757,3.628l3.032-1.468l-1.705-3.521l0.382-0.185l1.705,3.521l3.091-1.497l-1.763-3.64l-1.479,0.716l-0.197-0.405
		l1.862-0.902l2.762,5.705L42.596,248.314z"/>
	<path fill="#FFFFFF" d="M33.844,237.936c-2.204,0.846-4.44,0.128-5.443-2.485c-0.361-0.941-0.476-1.905-0.411-2.697l1.634-0.627
		l0.167,0.434l-1.399,0.536c-0.026,0.635,0.125,1.473,0.396,2.178c0.775,2.019,2.577,3.088,4.893,2.198
		c2.451-0.941,2.85-3.083,2.17-4.854c-0.365-0.953-1.027-1.751-1.672-2.284l0.421-0.163c0.596,0.481,1.258,1.278,1.652,2.306
		C37.088,234.657,36.345,236.975,33.844,237.936z"/>
	<path fill="#FFFFFF" d="M32.799,224.269l-0.393-1.308l-6.92,2.08l0.393,1.307l-0.407,0.123l-0.923-3.072l0.406-0.123l0.393,1.307
		l6.92-2.079l-0.393-1.308l0.406-0.123l0.923,3.074L32.799,224.269z"/>
	<path fill="#FFFFFF" d="M30.371,215.841l-0.256-1.179l-7.681-1.314l0.268,1.23l-0.415,0.09l-0.425-1.956l6.821-4.632l-0.256-1.178
		l0.415-0.091l0.667,3.07l-0.415,0.09l-0.307-1.412l-2.126,1.452l0.814,3.744l2.534,0.427l-0.307-1.413l0.414-0.09l0.667,3.07
		L30.371,215.841z M26.27,210.274l-3.893,2.624l4.635,0.784L26.27,210.274z"/>
	<path fill="#FFFFFF" d="M27.548,201.458l-0.173-1.356l-7.171,0.917l0.173,1.356l-0.421,0.053l-0.422-3.302l0.421-0.054l0.189,1.473
		l7.17-0.917l-0.521-4.078l-1.697,0.216l-0.057-0.447l2.119-0.27l0.812,6.354L27.548,201.458z"/>
	<path fill="#FFFFFF" d="M26.251,189.172l-0.076-1.363l-7.213,0.404l0.076,1.363l-0.423,0.023l-0.18-3.203l0.424-0.024l0.077,1.363
		l7.213-0.404l-0.077-1.363l0.424-0.024l0.18,3.202L26.251,189.172z"/>
	<path fill="#FFFFFF" d="M26.087,179.66l-1.656-0.023l0.006-0.451l1.325,0.018c0.193-0.594,0.325-1.44,0.334-2.129
		c0.021-1.576-0.618-2.341-1.599-2.354c-2.451-0.033-1.615,4.723-4.397,4.685c-1.086-0.015-1.991-0.756-1.965-2.664
		c0.011-0.768,0.167-1.602,0.375-2.261l1.643,0.021l-0.006,0.465l-1.312-0.018c-0.139,0.475-0.254,1.136-0.262,1.758
		c-0.023,1.696,0.738,2.224,1.52,2.234c2.333,0.032,1.562-4.723,4.411-4.685c1.312,0.018,2.039,1.048,2.016,2.824
		C26.509,177.916,26.335,178.934,26.087,179.66z"/>
	<path fill="#FFFFFF" d="M26.444,166.38l0.134-1.425l-7.194-0.678l-0.261,2.772l1.544,0.146l-0.043,0.449l-1.967-0.186l0.652-6.917
		l1.967,0.187l-0.042,0.448l-1.545-0.146l-0.261,2.772l7.194,0.679l0.134-1.425l0.423,0.04l-0.314,3.326L26.444,166.38z"/>
	<path fill="#FFFFFF" d="M27.972,155.171l-1.632-0.289l0.079-0.444l1.307,0.231c0.286-0.556,0.551-1.371,0.671-2.049
		c0.275-1.555-0.233-2.412-1.2-2.583c-2.415-0.428-2.354,4.404-5.096,3.919c-1.071-0.19-1.845-1.068-1.512-2.948
		c0.133-0.756,0.422-1.554,0.733-2.172l1.62,0.287l-0.082,0.457l-1.292-0.229c-0.213,0.447-0.434,1.081-0.542,1.694
		c-0.295,1.672,0.372,2.315,1.143,2.451c2.298,0.407,2.302-4.414,5.109-3.917c1.292,0.229,1.846,1.364,1.536,3.114
		C28.669,153.517,28.334,154.495,27.972,155.171z"/>
</g>
<circle fill="#FFFFFF" cx="47.924" cy="92.044" r="3.687"/>
<circle fill="#FFFFFF" cx="179.657" cy="336.284" r="3.687"/>
<circle fill="#FFFFFF" cx="313.463" cy="95.6" r="3.687"/>
</svg>
